<svg width="167" height="101" xmlns="http://www.w3.org/2000/svg" xmlns:xlink="http://www.w3.org/1999/xlink" xmlns:svgjs="http://svgjs.com/svgjs" viewBox="2528 534 167 101"><svg width="167" height="70" xmlns="http://www.w3.org/2000/svg" xmlns:xlink="http://www.w3.org/1999/xlink" xmlns:svgjs="http://svgjs.com/svgjs" fill="#f3f7ff" x="2528" y="549"><svg xmlns="http://www.w3.org/2000/svg" xmlns:xlink="http://www.w3.org/1999/xlink" width="167" height="70"><path paint-order="stroke fill markers" fill-rule="evenodd" d="M129 70H46a7 7 0 1 1 0-14H7a7 7 0 0 1 0-14h40a7 7 0 1 0 0-14H22a7 7 0 0 1 0-14h40a7 7 0 0 1 0-14h98a7 7 0 1 1 0 14h-40a7 7 0 1 1 0 14h22a7 7 0 0 1 0 14h-10.174c-4.875 0-8.826 3.134-8.826 7s6 7 6 7a7 7 0 0 1 0 14zm31-28a7 7 0 1 1 0-14 7 7 0 0 1 0 14z"/></svg></svg><svg width="76" height="87" xmlns="http://www.w3.org/2000/svg" xmlns:xlink="http://www.w3.org/1999/xlink" xmlns:svgjs="http://svgjs.com/svgjs" viewBox="0 0.086 76 86.828" fill="#fff" stroke-miterlimit="10" stroke-linecap="round" stroke="#75a4fe" stroke-width="2.5" x="2569" y="548"><svg xmlns="http://www.w3.org/2000/svg" xmlns:xlink="http://www.w3.org/1999/xlink" width="76" height="87" viewBox="0.278 0 75.562 86.327"><path paint-order="stroke fill markers" fill-rule="evenodd" d="M65.672 0l9.302 67.843.835 6.806a4 4 0 0 1-3.482 4.458l-58.56 7.19a4 4 0 0 1-4.458-3.483L.293 9.387a2 2 0 0 1 1.741-2.23c.007 0 .014 0 .021-.002l4.858-.545L65.672 0m-54.83 6.17l4.587-.515-4.587.515"/></svg></svg><svg width="69" height="79" xmlns="http://www.w3.org/2000/svg" xmlns:xlink="http://www.w3.org/1999/xlink" xmlns:svgjs="http://svgjs.com/svgjs" viewBox="0.144 0 68.711 79" fill="#e8f0fe" x="2573" y="552"><svg xmlns="http://www.w3.org/2000/svg" xmlns:xlink="http://www.w3.org/1999/xlink" width="69" height="79" viewBox="0.37 0.269 67.974 78.152"><path paint-order="stroke fill markers" fill-rule="evenodd" d="M59.14.27l8.42 61.483.757 6.168c.244 1.987-1.15 3.794-3.114 4.035l-52.442 6.439c-1.963.24-3.753-1.175-3.997-3.162L.37 6.872l8.473-1.04L59.14.268"/></svg></svg><svg width="68" height="84" xmlns="http://www.w3.org/2000/svg" xmlns:xlink="http://www.w3.org/1999/xlink" xmlns:svgjs="http://svgjs.com/svgjs" viewBox="0.5 0 67 84" fill="#fff" stroke-miterlimit="100" stroke="#75a4fe" stroke-width="2.5" x="2587" y="534"><svg xmlns="http://www.w3.org/2000/svg" xmlns:xlink="http://www.w3.org/1999/xlink" width="68" height="84" viewBox="0.672 0 67 84"><path paint-order="stroke fill markers" fill-rule="evenodd" d="M4.672 0h43.213c2.212 0 5.264 1.264 6.829 2.828L64.842 12.95c1.565 1.563 2.83 4.615 2.83 6.827V80c0 2.212-1.788 4-4 4h-59c-2.212 0-4-1.788-4-4V4c0-2.212 1.788-4 4-4z"/></svg></svg><svg width="12" height="16" xmlns="http://www.w3.org/2000/svg" xmlns:xlink="http://www.w3.org/1999/xlink" xmlns:svgjs="http://svgjs.com/svgjs" viewBox="0.008 0 11.984 16" fill="none" stroke-miterlimit="10" stroke-linejoin="round" stroke-linecap="round" stroke="#75a4fe" stroke-width="2.5" x="2637" y="536"><svg xmlns="http://www.w3.org/2000/svg" xmlns:xlink="http://www.w3.org/1999/xlink" width="12" height="16" viewBox="0.672 0.403 10.934 14.597"><path paint-order="stroke fill markers" d="M.672.403V12a3 3 0 0 0 3 3h7.933L.672.403"/></svg></svg><svg width="44" height="51" xmlns="http://www.w3.org/2000/svg" xmlns:xlink="http://www.w3.org/1999/xlink" xmlns:svgjs="http://svgjs.com/svgjs" viewBox="0.5 0 43 51" fill="none" stroke-miterlimit="10" stroke-linejoin="round" stroke-linecap="round" stroke="#a4c3fe" stroke-width="2.5" x="2599" y="551"><svg xmlns="http://www.w3.org/2000/svg" width="44" height="51" viewBox="0.672 0 43 51"><path paint-order="stroke fill markers" d="M.672 0h0m0 12h0m0 13h0m0 13h0m0 13h0"/></svg></svg></svg>