<svg width="216" height="83" xmlns="http://www.w3.org/2000/svg" xmlns:xlink="http://www.w3.org/1999/xlink" xmlns:svgjs="http://svgjs.com/svgjs" viewBox="2492 929 216 83"><svg width="216" height="71" xmlns="http://www.w3.org/2000/svg" xmlns:xlink="http://www.w3.org/1999/xlink" xmlns:svgjs="http://svgjs.com/svgjs" viewBox="0 0.5 216 70" fill="#f3f7ff" x="2492" y="936"><svg xmlns="http://www.w3.org/2000/svg" xmlns:xlink="http://www.w3.org/1999/xlink" width="216" height="71" viewBox="0 0 216 70"><path paint-order="stroke fill markers" fill-rule="evenodd" d="M46 70a7 7 0 1 1 0-14H7a7 7 0 0 1 0-14h40a7 7 0 0 0 0-14H22a7 7 0 0 1 0-14h40a7 7 0 0 1 0-14h57a7 7 0 0 1 0 14h64a7 7 0 1 1 0 14h22a7 7 0 0 1 0 14h-19a7 7 0 1 0 0 14h6a7 7 0 0 1 0 14H46zm163 0a7 7 0 1 0 0-14 7 7 0 0 0 0 14z"/></svg></svg><svg width="124" height="83" xmlns="http://www.w3.org/2000/svg" xmlns:xlink="http://www.w3.org/1999/xlink" xmlns:svgjs="http://svgjs.com/svgjs" viewBox="0.5 0 123 83" fill="#fff" stroke-miterlimit="10" stroke-linecap="round" stroke="#75a4fe" stroke-width="2.5" x="2545" y="929"><svg xmlns="http://www.w3.org/2000/svg" xmlns:xlink="http://www.w3.org/1999/xlink" width="124" height="83" viewBox="0 0 123 83"><path paint-order="stroke fill markers" fill-rule="evenodd" d="M22 83C9.85 83 0 73.374 0 61.5S9.85 40 22 40c.517 0 1.029.017 1.537.052A34.208 34.208 0 0 1 23 34C23 15.222 38.222 0 57 0c14.99 0 27.716 9.702 32.238 23.17A31.37 31.37 0 0 1 92.5 23C109.345 23 123 36.43 123 53c0 15.74-12.325 28.727-28 29.978V83H38.508 22m11.996 0H27.03h6.965"/></svg></svg><svg width="15" height="14" xmlns="http://www.w3.org/2000/svg" xmlns:xlink="http://www.w3.org/1999/xlink" xmlns:svgjs="http://svgjs.com/svgjs" viewBox="0.427 0 14.145 14" fill="none" stroke-miterlimit="10" stroke-linecap="round" stroke="#a4c3fe" stroke-width="2.5" x="2611" y="941"><svg xmlns="http://www.w3.org/2000/svg" xmlns:xlink="http://www.w3.org/1999/xlink" width="15" height="14" viewBox="0.89 -0.008 13.56 13.421"><path paint-order="stroke fill markers" d="M1 0a19.036 19.036 0 0 1 13.44 13.293C14.887 14.909-.556-.412 1 0"/></svg></svg><svg width="14" height="8" xmlns="http://www.w3.org/2000/svg" xmlns:xlink="http://www.w3.org/1999/xlink" xmlns:svgjs="http://svgjs.com/svgjs" viewBox="0.577 0 12.847 8" fill="none" stroke-miterlimit="10" stroke-linecap="round" stroke="#75a4fe" stroke-width="2.5" x="2583" y="972"><svg xmlns="http://www.w3.org/2000/svg" xmlns:xlink="http://www.w3.org/1999/xlink" width="14" height="8" viewBox="0 -0.718 14 8.718"><path paint-order="stroke fill markers" d="M0 1a7 7 0 1 0 14 0S0-2.866 0 1"/></svg></svg><svg width="14" height="8" xmlns="http://www.w3.org/2000/svg" xmlns:xlink="http://www.w3.org/1999/xlink" xmlns:svgjs="http://svgjs.com/svgjs" viewBox="0.577 0 12.847 8" fill="none" stroke-miterlimit="10" stroke-linecap="round" stroke="#75a4fe" stroke-width="2.5" x="2612" y="972"><svg xmlns="http://www.w3.org/2000/svg" xmlns:xlink="http://www.w3.org/1999/xlink" width="14" height="8" viewBox="0 -0.718 14 8.718"><path paint-order="stroke fill markers" d="M0 1a7 7 0 1 0 14 0S0-2.866 0 1"/></svg></svg><svg width="15" height="0" xmlns="http://www.w3.org/2000/svg" xmlns:xlink="http://www.w3.org/1999/xlink" xmlns:svgjs="http://svgjs.com/svgjs" fill="none" stroke-miterlimit="10" stroke-linecap="round" stroke="#75a4fe" stroke-width="2.5" x="2597" y="992"><svg xmlns="http://www.w3.org/2000/svg" xmlns:xlink="http://www.w3.org/1999/xlink" width="15" height="0"><path paint-order="stroke fill markers" d="M0 0h0"/></svg></svg><svg width="27" height="27" xmlns="http://www.w3.org/2000/svg" xmlns:xlink="http://www.w3.org/1999/xlink" xmlns:svgjs="http://svgjs.com/svgjs" viewBox="0.246 0 26.509 27" fill="#75a4fe" x="2531" y="932"><svg xmlns="http://www.w3.org/2000/svg" width="27" height="27" viewBox="0.506 0.292 26.222 26.708"><path paint-order="stroke fill markers" fill-rule="evenodd" d="M1.21.292h11.946v2.09L4.004 13.624h9.372V16H.506v-2.244L9.658 2.668H1.21V.292zm16.67 15.284h8.688v1.52l-6.656 8.176h6.816V27h-9.36v-1.632l6.656-8.064H17.88v-1.728z"/></svg></svg></svg>