<svg width="64" height="64" xmlns="http://www.w3.org/2000/svg">

 <g id="imagebot_2">
  <title>imagebot_2</title>
  <g id="imagebot_17">
   <g id="imagebot_3">
    <circle id="imagebot_4" fill="#f48235" r="32" cy="32" cx="32"/>
   </g>
   <g id="imagebot_8">
    <path id="imagebot_9" fill="#ffffff" d="M45.5,31.2L40.5,31.2L40.5,23.9C40.5,19.2 36.7,15.4 32,15.4S23.5,19.2 23.5,23.9L23.5,31.2L18.5,31.2L18.5,23.9C18.5,16.5 24.6,10.4 32,10.4S45.5,16.5 45.5,23.9L45.5,31.2z"/>
   </g>
   <g id="imagebot_10">
    <g id="imagebot_11">
     <path id="imagebot_12" fill="#f48235" d="M32,32C29.8,32 28,33.8 28,36C28,37.5 28.8,38.8 30,39.4L30,42C30,43.1 30.9,44 32,44S34,43.1 34,42L34,39.4C35.2,38.7 36,37.4 36,36C36,33.8 34.2,32 32,32z"/>
    </g>
   </g>
   <g id="imagebot_15">
    <path id="imagebot_16" fill="rgb(255, 255, 255)" d="M47,25L17,25C15.3,25 14,26.3 14,28L14,47C14,48.7 15.3,50 17,50L47,50C48.7,50 50,48.7 50,47L50,28C50,26.3 48.7,25 47,25zM34,39.4L34,42C34,43.1 33.1,44 32,44S30,43.1 30,42L30,39.4C28.8,38.7 28,37.4 28,36C28,33.8 29.8,32 32,32S36,33.8 36,36C36,37.5 35.2,38.8 34,39.4z"/>
   </g>
  </g>
 </g>
 <g id="imagebot_1">
  <title>imagebot_1</title>
 </g>
</svg>